{
	"asset":{
		"generator":"Khronos glTF Blender I/O v4.0.44",
		"version":"2.0"
	},
	"scene":0,
	"scenes":[
		{
			"name":"Scene",
			"nodes":[
				0,
				1,
				2,
				3,
				4,
				5,
				6,
				7
			]
		}
	],
	"nodes":[
		{
			"mesh":0,
			"name":"Mesh_0.001",
			"translation":[
				-10.033499717712402,
				-38.9005012512207,
				-7.007999897003174
			]
		},
		{
			"mesh":1,
			"name":"Mesh_1.001",
			"translation":[
				-10.033499717712402,
				-38.9005012512207,
				-7.007999897003174
			]
		},
		{
			"mesh":2,
			"name":"Mesh_2.001",
			"translation":[
				-10.033499717712402,
				-38.9005012512207,
				-7.007999897003174
			]
		},
		{
			"mesh":3,
			"name":"Mesh_3.001",
			"translation":[
				-10.033499717712402,
				-38.9005012512207,
				-7.007999897003174
			]
		},
		{
			"mesh":4,
			"name":"Mesh_4.001",
			"translation":[
				-10.033499717712402,
				-38.9005012512207,
				-7.007999897003174
			]
		},
		{
			"mesh":5,
			"name":"Mesh_5.001",
			"translation":[
				-10.033499717712402,
				-38.9005012512207,
				-7.007999897003174
			]
		},
		{
			"mesh":6,
			"name":"Mesh_6.001",
			"translation":[
				-10.033499717712402,
				-38.9005012512207,
				-7.007999897003174
			]
		},
		{
			"mesh":7,
			"name":"Mesh_7.001",
			"translation":[
				-10.033499717712402,
				-38.9005012512207,
				-7.007999897003174
			]
		}
	],
	"materials":[
		{
			"doubleSided":true,
			"name":"Material_0.001",
			"pbrMetallicRoughness":{
				"metallicFactor":0
			}
		},
		{
			"alphaMode":"BLEND",
			"name":"Material_1",
			"pbrMetallicRoughness":{
				"metallicFactor":0
			}
		}
	],
	"meshes":[
		{
			"name":"Mesh_0.001",
			"primitives":[
				{
					"attributes":{
						"COLOR_0":0,
						"POSITION":1,
						"NORMAL":2
					},
					"indices":3,
					"material":0
				}
			]
		},
		{
			"name":"Mesh_1.001",
			"primitives":[
				{
					"attributes":{
						"COLOR_0":4,
						"POSITION":5,
						"NORMAL":6
					},
					"indices":7,
					"material":0
				}
			]
		},
		{
			"name":"Mesh_2.001",
			"primitives":[
				{
					"attributes":{
						"COLOR_0":8,
						"POSITION":9,
						"NORMAL":10
					},
					"indices":11,
					"material":0
				}
			]
		},
		{
			"name":"Mesh_3.001",
			"primitives":[
				{
					"attributes":{
						"COLOR_0":12,
						"POSITION":13,
						"NORMAL":14
					},
					"indices":15,
					"material":1
				}
			]
		},
		{
			"name":"Mesh_4.001",
			"primitives":[
				{
					"attributes":{
						"COLOR_0":16,
						"POSITION":17,
						"NORMAL":18
					},
					"indices":19,
					"material":0
				}
			]
		},
		{
			"name":"Mesh_5.001",
			"primitives":[
				{
					"attributes":{
						"COLOR_0":20,
						"POSITION":21,
						"NORMAL":22
					},
					"indices":19,
					"material":0
				}
			]
		},
		{
			"name":"Mesh_6.001",
			"primitives":[
				{
					"attributes":{
						"COLOR_0":23,
						"POSITION":24,
						"NORMAL":25
					},
					"indices":26,
					"material":0
				}
			]
		},
		{
			"name":"Mesh_7.001",
			"primitives":[
				{
					"attributes":{
						"COLOR_0":27,
						"POSITION":28,
						"NORMAL":29
					},
					"indices":26,
					"material":0
				}
			]
		}
	],
	"accessors":[
		{
			"bufferView":0,
			"componentType":5123,
			"count":68972,
			"normalized":true,
			"type":"VEC4"
		},
		{
			"bufferView":1,
			"componentType":5126,
			"count":68972,
			"max":[
				37.232887268066406,
				67.23894500732422,
				28.90425682067871
			],
			"min":[
				-18.40763282775879,
				10.140972137451172,
				-18.63650131225586
			],
			"type":"VEC3"
		},
		{
			"bufferView":2,
			"componentType":5126,
			"count":68972,
			"type":"VEC3"
		},
		{
			"bufferView":3,
			"componentType":5125,
			"count":345972,
			"type":"SCALAR"
		},
		{
			"bufferView":4,
			"componentType":5123,
			"count":20544,
			"normalized":true,
			"type":"VEC4"
		},
		{
			"bufferView":5,
			"componentType":5126,
			"count":20544,
			"max":[
				18.625,
				45.02299880981445,
				12.259499549865723
			],
			"min":[
				3.8239998817443848,
				39.47599792480469,
				3.9730002880096436
			],
			"type":"VEC3"
		},
		{
			"bufferView":6,
			"componentType":5126,
			"count":20544,
			"type":"VEC3"
		},
		{
			"bufferView":7,
			"componentType":5123,
			"count":122880,
			"type":"SCALAR"
		},
		{
			"bufferView":8,
			"componentType":5123,
			"count":12720,
			"normalized":true,
			"type":"VEC4"
		},
		{
			"bufferView":9,
			"componentType":5126,
			"count":12720,
			"max":[
				18.538434982299805,
				44.861778259277344,
				12.117659568786621
			],
			"min":[
				3.9093008041381836,
				39.563201904296875,
				4.1072187423706055
			],
			"type":"VEC3"
		},
		{
			"bufferView":10,
			"componentType":5126,
			"count":12720,
			"type":"VEC3"
		},
		{
			"bufferView":11,
			"componentType":5123,
			"count":27648,
			"type":"SCALAR"
		},
		{
			"bufferView":12,
			"componentType":5123,
			"count":40446,
			"normalized":true,
			"type":"VEC4"
		},
		{
			"bufferView":13,
			"componentType":5126,
			"count":40446,
			"max":[
				35.92900085449219,
				64.64899444580078,
				27.35099983215332
			],
			"min":[
				-11.312999725341797,
				32.494998931884766,
				-16.284000396728516
			],
			"type":"VEC3"
		},
		{
			"bufferView":14,
			"componentType":5126,
			"count":40446,
			"type":"VEC3"
		},
		{
			"bufferView":15,
			"componentType":5123,
			"count":241920,
			"type":"SCALAR"
		},
		{
			"bufferView":16,
			"componentType":5123,
			"count":3210,
			"normalized":true,
			"type":"VEC4"
		},
		{
			"bufferView":17,
			"componentType":5126,
			"count":3210,
			"max":[
				26.336000442504883,
				41.573001861572266,
				7.906000137329102
			],
			"min":[
				23.56999969482422,
				38.97599792480469,
				5.23199987411499
			],
			"type":"VEC3"
		},
		{
			"bufferView":18,
			"componentType":5126,
			"count":3210,
			"type":"VEC3"
		},
		{
			"bufferView":19,
			"componentType":5123,
			"count":19200,
			"type":"SCALAR"
		},
		{
			"bufferView":20,
			"componentType":5123,
			"count":3210,
			"normalized":true,
			"type":"VEC4"
		},
		{
			"bufferView":21,
			"componentType":5126,
			"count":3210,
			"max":[
				0.6790000200271606,
				64.28799438476562,
				7.944000244140625
			],
			"min":[
				-2.006999969482422,
				61.75699996948242,
				5.190000057220459
			],
			"type":"VEC3"
		},
		{
			"bufferView":22,
			"componentType":5126,
			"count":3210,
			"type":"VEC3"
		},
		{
			"bufferView":23,
			"componentType":5123,
			"count":888,
			"normalized":true,
			"type":"VEC4"
		},
		{
			"bufferView":24,
			"componentType":5126,
			"count":888,
			"max":[
				26.14948844909668,
				41.390892028808594,
				7.806166172027588
			],
			"min":[
				23.695682525634766,
				39.12541580200195,
				5.423945426940918
			],
			"type":"VEC3"
		},
		{
			"bufferView":25,
			"componentType":5126,
			"count":888,
			"type":"VEC3"
		},
		{
			"bufferView":26,
			"componentType":5123,
			"count":2592,
			"type":"SCALAR"
		},
		{
			"bufferView":27,
			"componentType":5123,
			"count":888,
			"normalized":true,
			"type":"VEC4"
		},
		{
			"bufferView":28,
			"componentType":5126,
			"count":888,
			"max":[
				0.5590232610702515,
				64.09458923339844,
				7.800798416137695
			],
			"min":[
				-1.8535088300704956,
				61.850730895996094,
				5.328020095825195
			],
			"type":"VEC3"
		},
		{
			"bufferView":29,
			"componentType":5126,
			"count":888,
			"type":"VEC3"
		}
	],
	"bufferViews":[
		{
			"buffer":0,
			"byteLength":551776,
			"byteOffset":0,
			"target":34962
		},
		{
			"buffer":0,
			"byteLength":827664,
			"byteOffset":551776,
			"target":34962
		},
		{
			"buffer":0,
			"byteLength":827664,
			"byteOffset":1379440,
			"target":34962
		},
		{
			"buffer":0,
			"byteLength":1383888,
			"byteOffset":2207104,
			"target":34963
		},
		{
			"buffer":0,
			"byteLength":164352,
			"byteOffset":3590992,
			"target":34962
		},
		{
			"buffer":0,
			"byteLength":246528,
			"byteOffset":3755344,
			"target":34962
		},
		{
			"buffer":0,
			"byteLength":246528,
			"byteOffset":4001872,
			"target":34962
		},
		{
			"buffer":0,
			"byteLength":245760,
			"byteOffset":4248400,
			"target":34963
		},
		{
			"buffer":0,
			"byteLength":101760,
			"byteOffset":4494160,
			"target":34962
		},
		{
			"buffer":0,
			"byteLength":152640,
			"byteOffset":4595920,
			"target":34962
		},
		{
			"buffer":0,
			"byteLength":152640,
			"byteOffset":4748560,
			"target":34962
		},
		{
			"buffer":0,
			"byteLength":55296,
			"byteOffset":4901200,
			"target":34963
		},
		{
			"buffer":0,
			"byteLength":323568,
			"byteOffset":4956496,
			"target":34962
		},
		{
			"buffer":0,
			"byteLength":485352,
			"byteOffset":5280064,
			"target":34962
		},
		{
			"buffer":0,
			"byteLength":485352,
			"byteOffset":5765416,
			"target":34962
		},
		{
			"buffer":0,
			"byteLength":483840,
			"byteOffset":6250768,
			"target":34963
		},
		{
			"buffer":0,
			"byteLength":25680,
			"byteOffset":6734608,
			"target":34962
		},
		{
			"buffer":0,
			"byteLength":38520,
			"byteOffset":6760288,
			"target":34962
		},
		{
			"buffer":0,
			"byteLength":38520,
			"byteOffset":6798808,
			"target":34962
		},
		{
			"buffer":0,
			"byteLength":38400,
			"byteOffset":6837328,
			"target":34963
		},
		{
			"buffer":0,
			"byteLength":25680,
			"byteOffset":6875728,
			"target":34962
		},
		{
			"buffer":0,
			"byteLength":38520,
			"byteOffset":6901408,
			"target":34962
		},
		{
			"buffer":0,
			"byteLength":38520,
			"byteOffset":6939928,
			"target":34962
		},
		{
			"buffer":0,
			"byteLength":7104,
			"byteOffset":6978448,
			"target":34962
		},
		{
			"buffer":0,
			"byteLength":10656,
			"byteOffset":6985552,
			"target":34962
		},
		{
			"buffer":0,
			"byteLength":10656,
			"byteOffset":6996208,
			"target":34962
		},
		{
			"buffer":0,
			"byteLength":5184,
			"byteOffset":7006864,
			"target":34963
		},
		{
			"buffer":0,
			"byteLength":7104,
			"byteOffset":7012048,
			"target":34962
		},
		{
			"buffer":0,
			"byteLength":10656,
			"byteOffset":7019152,
			"target":34962
		},
		{
			"buffer":0,
			"byteLength":10656,
			"byteOffset":7029808,
			"target":34962
		}
	],
	"buffers":[
		{
			"byteLength":7040464,
			"uri":"7AAD02.bin"
		}
	]
}